<svg xmlns="http://www.w3.org/2000/svg" xmlns:xlink="http://www.w3.org/1999/xlink" width="409.873" height="644.763" viewBox="0 0 409.873 644.763">
    <defs>
        <clipPath id="clip-path">
            <path id="Path_35" d="M0,212.553H644.763V-197.32H0Z" transform="translate(0 197.32)" fill="none"/>
        </clipPath>
    </defs>
    <g id="Group_39" transform="translate(212.553) rotate(90)">
        <g id="Group_35"  transform="translate(0 -197.32)" clip-path="url(#clip-path)">
            <g id="Group_2" transform="translate(0 198.63)">
                <path id="Path_2" d="M3.3,6.592A6.356,6.356,0,1,0-3.06.236,6.356,6.356,0,0,0,3.3,6.592" transform="translate(3.06 6.12)" fill="#6fc5a7"/>
            </g>
            <g id="Group_3" transform="translate(0 246.738)">
                <path id="Path_3" d="M3.3,6.592A6.356,6.356,0,1,0-3.06.236,6.356,6.356,0,0,0,3.3,6.592" transform="translate(3.06 6.12)" fill="#6fc5a7"/>
            </g>
            <g id="Group_4" transform="translate(631.676 151.802)">
                <path id="Path_4" d="M3.3,0A6.356,6.356,0,1,0,9.652,6.356,6.356,6.356,0,0,0,3.3,0" transform="translate(3.06)" fill="#6fc5a7"/>
            </g>
            <g id="Group_5" transform="translate(585.334 150.423)">
                <path id="Path_5" d="M3.3,0A6.356,6.356,0,1,0,9.652,6.356,6.356,6.356,0,0,0,3.3,0" transform="translate(3.06)" fill="#6fc5a7"/>
            </g>
            <g id="Group_6" transform="translate(585.334 98.677)">
                <path id="Path_6" d="M3.3,0A6.356,6.356,0,1,0,9.652,6.356,6.356,6.356,0,0,0,3.3,0" transform="translate(3.06)" fill="#6fc5a7"/>
            </g>
            <g id="Group_7" transform="translate(94.97 198.63)">
                <path id="Path_7" d="M3.3,6.592A6.356,6.356,0,1,0-3.06.236,6.356,6.356,0,0,0,3.3,6.592" transform="translate(3.06 6.12)" fill="#6fc5a7"/>
            </g>
            <g id="Group_8" transform="translate(536.707 198.631)">
                <path id="Path_8" d="M3.3,0A6.356,6.356,0,1,0,9.652,6.356,6.356,6.356,0,0,0,3.3,0" transform="translate(3.06)" fill="#6fc5a7"/>
            </g>
            <g id="Group_9" transform="translate(142.454 198.63)">
                <path id="Path_9" d="M3.3,6.592A6.356,6.356,0,1,0-3.06.236,6.356,6.356,0,0,0,3.3,6.592" transform="translate(3.06 6.12)" fill="#6fc5a7"/>
            </g>
            <g id="Group_10" transform="translate(489.222 198.631)">
                <path id="Path_10" d="M3.3,0A6.356,6.356,0,1,0,9.652,6.356,6.356,6.356,0,0,0,3.3,0" transform="translate(3.06)" fill="#6fc5a7"/>
            </g>
            <g id="Group_11" transform="translate(239.293 246.738)">
                <path id="Path_11" d="M3.3,6.592A6.356,6.356,0,1,0-3.06.236,6.356,6.356,0,0,0,3.3,6.592" transform="translate(3.06 6.12)" fill="#6fc5a7"/>
            </g>
            <g id="Group_12" transform="translate(392.383 149.808)">
                <path id="Path_12" d="M3.3,0A6.356,6.356,0,1,0,9.652,6.356,6.356,6.356,0,0,0,3.3,0" transform="translate(3.06)" fill="#6fc5a7"/>
            </g>
            <g id="Group_13" transform="translate(240.207 198.63)">
                <path id="Path_13" d="M3.3,6.592A6.356,6.356,0,1,0-3.06.236,6.356,6.356,0,0,0,3.3,6.592" transform="translate(3.06 6.12)" fill="#6fc5a7"/>
            </g>
            <g id="Group_14" transform="translate(391.469 198.631)">
                <path id="Path_14" d="M3.3,0A6.356,6.356,0,1,0,9.652,6.356,6.356,6.356,0,0,0,3.3,0" transform="translate(3.06)" fill="#6fc5a7"/>
            </g>
            <g id="Group_15" transform="translate(142.454 246.738)">
                <path id="Path_15" d="M3.3,6.592A6.356,6.356,0,1,0-3.06.236,6.356,6.356,0,0,0,3.3,6.592" transform="translate(3.06 6.12)" fill="#6fc5a7"/>
            </g>
            <g id="Group_16" transform="translate(489.222 149.044)">
                <path id="Path_16" d="M3.3,0A6.356,6.356,0,1,0,9.652,6.356,6.356,6.356,0,0,0,3.3,0" transform="translate(3.06)" fill="#6fc5a7"/>
            </g>
            <g id="Group_17" transform="translate(239.293 296.341)">
                <path id="Path_17" d="M3.3,6.592A6.356,6.356,0,1,0-3.06.236,6.356,6.356,0,0,0,3.3,6.592" transform="translate(3.06 6.12)" fill="#6fc5a7"/>
            </g>
            <g id="Group_18" transform="translate(392.383 100.82)">
                <path id="Path_18" d="M3.3,0A6.356,6.356,0,1,0,9.652,6.356,6.356,6.356,0,0,0,3.3,0" transform="translate(3.06)" fill="#6fc5a7"/>
            </g>
            <g id="Group_19" transform="translate(142.454 298.485)">
                <path id="Path_19" d="M3.3,6.592A6.356,6.356,0,1,0-3.06.236,6.356,6.356,0,0,0,3.3,6.592" transform="translate(3.06 6.12)" fill="#6fc5a7"/>
            </g>
            <g id="Group_20" transform="translate(489.222 98.677)">
                <path id="Path_20" d="M3.3,0A6.356,6.356,0,1,0,9.652,6.356,6.356,6.356,0,0,0,3.3,0" transform="translate(3.06)" fill="#6fc5a7"/>
            </g>
            <g id="Group_21" transform="translate(142.454 348.172)">
                <path id="Path_21" d="M3.3,6.592A6.356,6.356,0,1,0-3.06.236,6.356,6.356,0,0,0,3.3,6.592" transform="translate(3.06 6.12)" fill="#6fc5a7"/>
            </g>
            <g id="Group_22" transform="translate(489.222 48.989)">
                <path id="Path_22" d="M3.3,0A6.356,6.356,0,1,0,9.652,6.356,6.356,6.356,0,0,0,3.3,0" transform="translate(3.06)" fill="#6fc5a7"/>
            </g>
            <g id="Group_23" transform="translate(142.454 397.161)">
                <path id="Path_23" d="M3.3,6.592A6.356,6.356,0,1,0-3.06.236,6.356,6.356,0,0,0,3.3,6.592" transform="translate(3.06 6.12)" fill="#6fc5a7"/>
            </g>
            <g id="Group_24" transform="translate(489.222 0)">
                <path id="Path_24" d="M3.3,0A6.356,6.356,0,1,0,9.652,6.356,6.356,6.356,0,0,0,3.3,0" transform="translate(3.06)" fill="#6fc5a7"/>
            </g>
            <g id="Group_25" transform="translate(142.454 150.14)">
                <path id="Path_25" d="M3.3,6.592A6.356,6.356,0,1,0-3.06.236,6.356,6.356,0,0,0,3.3,6.592" transform="translate(3.06 6.12)" fill="#6fc5a7"/>
            </g>
            <g id="Group_26" transform="translate(489.222 246.739)">
                <path id="Path_26" d="M3.3,0A6.356,6.356,0,1,0,9.652,6.356,6.356,6.356,0,0,0,3.3,0" transform="translate(3.06)" fill="#6fc5a7"/>
            </g>
            <g id="Group_27" transform="translate(189.939 198.63)">
                <path id="Path_27" d="M3.3,6.592A6.356,6.356,0,1,0-3.06.236,6.356,6.356,0,0,0,3.3,6.592" transform="translate(3.06 6.12)" fill="#6fc5a7"/>
            </g>
            <g id="Group_28" transform="translate(441.737 198.631)">
                <path id="Path_28" d="M3.3,0A6.356,6.356,0,1,0,9.652,6.356,6.356,6.356,0,0,0,3.3,0" transform="translate(3.06)" fill="#6fc5a7"/>
            </g>
            <g id="Group_29" transform="translate(287.692 198.63)">
                <path id="Path_29" d="M3.3,6.592A6.356,6.356,0,1,0-3.06.236,6.356,6.356,0,0,0,3.3,6.592" transform="translate(3.06 6.12)" fill="#6fc5a7"/>
            </g>
            <g id="Group_30" transform="translate(343.984 198.631)">
                <path id="Path_30" d="M3.3,0A6.356,6.356,0,1,0,9.652,6.356,6.356,6.356,0,0,0,3.3,0" transform="translate(3.06)" fill="#6fc5a7"/>
            </g>
            <g id="Group_31" transform="translate(189.939 150.14)">
                <path id="Path_31" d="M3.3,6.592A6.356,6.356,0,1,0-3.06.236,6.356,6.356,0,0,0,3.3,6.592" transform="translate(3.06 6.12)" fill="#6fc5a7"/>
            </g>
            <g id="Group_32" transform="translate(441.737 246.739)">
                <path id="Path_32" d="M3.3,0A6.356,6.356,0,1,0,9.652,6.356,6.356,6.356,0,0,0,3.3,0" transform="translate(3.06)" fill="#6fc5a7"/>
            </g>
            <g id="Group_33" transform="translate(287.692 150.14)">
                <path id="Path_33" d="M3.3,6.592A6.356,6.356,0,1,0-3.06.236,6.356,6.356,0,0,0,3.3,6.592" transform="translate(3.06 6.12)" fill="#6fc5a7"/>
            </g>
            <g id="Group_34" transform="translate(343.984 246.739)">
                <path id="Path_34" d="M3.3,0A6.356,6.356,0,1,0,9.652,6.356,6.356,6.356,0,0,0,3.3,0" transform="translate(3.06)" fill="#6fc5a7"/>
            </g>
        </g>
        <g id="Group_36" transform="translate(53.342 5.415)">
            <path id="Path_36" d="M0,0V102.7" fill="none" stroke="#6fc5a7" stroke-linecap="round" stroke-width="6"/>
        </g>
        <g id="Group_38" transform="translate(0 -197.32)" clip-path="url(#clip-path)">
            <g id="Group_37" transform="translate(591.172 204.986)">
                <path id="Path_37" d="M24.56,0H-22.8" transform="translate(22.8)" fill="none" stroke="#6fc5a7" stroke-linecap="round" stroke-width="6"/>
            </g>
        </g>
    </g>
</svg>
